<svg fill="#000000" height="800px" width="800px" version="1.1" id="Layer_1" xmlns="http://www.w3.org/2000/svg" xmlns:xlink="http://www.w3.org/1999/xlink" 
	 viewBox="0 0 512 512" xml:space="preserve">
<g>
	<g>
		<path d="M469.333,192h-42.667c-11.797,0-21.333,9.557-21.333,21.333s9.536,21.333,21.333,21.333v64
			c0,11.755-9.557,21.333-21.333,21.333h-0.171c-0.427-6.357-1.792-12.672-4.907-18.517c-7.957-14.891-23.424-24.149-40.32-24.149
			h-82.603V256h49.515c15.168,0,29.717-6.443,39.872-17.685c10.155-11.243,15.125-26.325,13.611-41.408L365.483,48.405
			C362.731,20.821,339.755,0,312,0H200c-27.755,0-50.731,20.821-53.483,48.384l-14.848,148.523
			c-1.515,15.083,3.456,30.165,13.611,41.408C155.435,249.557,169.984,256,185.152,256h49.515v21.333h-82.219
			c-16.896,0-32.363,9.259-40.32,24.149c-3.136,5.845-4.501,12.16-4.928,18.517h-0.533c-11.776,0-21.333-9.579-21.333-21.333v-64
			c11.797,0,21.333-9.557,21.333-21.333S97.131,192,85.333,192H42.667c-11.797,0-21.333,9.557-21.333,21.333
			s9.536,21.333,21.333,21.333v64c0,35.285,28.715,64,64,64h17.216l0.64,0.96C132.992,376.384,147.221,384,162.581,384h72.085
			v26.581l-133.845,38.251c-0.427,0.107-0.725,0.427-1.152,0.576c-1.429,0.512-2.667,1.259-3.947,2.048
			c-1.109,0.683-2.219,1.28-3.179,2.133c-1.045,0.939-1.813,2.027-2.645,3.157c-0.811,1.088-1.643,2.091-2.24,3.307
			c-0.555,1.173-0.853,2.432-1.195,3.712c-0.405,1.429-0.789,2.816-0.875,4.309c-0.021,0.448-0.256,0.811-0.256,1.259v21.333
			c0,11.776,9.536,21.333,21.333,21.333c11.797,0,21.333-9.557,21.333-21.333v-5.248l106.667-30.464v35.712
			c0,11.776,9.536,21.333,21.333,21.333s21.333-9.557,21.333-21.333v-35.712L384,485.419v5.248c0,11.776,9.536,21.333,21.333,21.333
			c11.797,0,21.333-9.557,21.333-21.333v-21.333c0-0.448-0.213-0.811-0.256-1.259c-0.085-1.493-0.469-2.88-0.875-4.309
			c-0.341-1.28-0.619-2.539-1.195-3.712c-0.597-1.216-1.429-2.219-2.24-3.307c-0.832-1.109-1.6-2.219-2.645-3.157
			c-0.96-0.853-2.048-1.451-3.157-2.133c-1.28-0.789-2.517-1.536-3.968-2.048c-0.427-0.149-0.725-0.469-1.152-0.576l-133.845-38.251
			V384h72.448c15.317,0,29.525-7.595,38.08-20.373l0.64-0.96h16.832c35.285,0,64-28.715,64-64v-64
			c11.797,0,21.333-9.557,21.333-21.333S481.131,192,469.333,192z"/>
	</g>
</g>
</svg>